HIERARCHY
ROOT mixamorig:Hips
{
	OFFSET 0.000000 96.227043 0.000000
	CHANNELS 6 Xposition Yposition Zposition Zrotation Yrotation Xrotation 
	JOINT mixamorig:Spine
	{
		OFFSET -0.000000 10.533499 -0.523275
		CHANNELS 3 Zrotation Yrotation Xrotation
		JOINT mixamorig:Spine1
		{
			OFFSET 0.000000 11.299546 -1.325292
			CHANNELS 3 Zrotation Yrotation Xrotation
			JOINT mixamorig:Spine2
			{
				OFFSET 0.000000 13.785172 -2.776498
				CHANNELS 3 Zrotation Yrotation Xrotation
				JOINT mixamorig:Neck
				{
					OFFSET 0.000000 10.127333 -2.861756
					CHANNELS 3 Zrotation Yrotation Xrotation
					JOINT mixamorig:Head
					{
						OFFSET -0.000000 13.647382 -1.413862
						CHANNELS 3 Zrotation Yrotation Xrotation
						JOINT mixamorig:HeadTop_End
						{
							OFFSET 0.000000 30.806381 7.007292
							CHANNELS 3 Zrotation Yrotation Xrotation
							JOINT mixamorig:HeadTop_End1
							{
								OFFSET 0.000000 2.676102 24.270611
								CHANNELS 3 Zrotation Yrotation Xrotation
								End Site
								{
									OFFSET 0.000000 0.000000 0.000000
								}
							}
						}
						JOINT mixamorig:Hair_Back
						{
							OFFSET 0.000000 4.645355 -17.237686
							CHANNELS 3 Zrotation Yrotation Xrotation
							End Site
							{
								OFFSET 0.000000 0.000000 0.000000
							}
						}
					}
				}
				JOINT mixamorig:LeftShoulder
				{
					OFFSET 15.012800 10.971772 -0.360322
					CHANNELS 3 Zrotation Yrotation Xrotation
					JOINT mixamorig:LeftArm
					{
						OFFSET 25.777773 -2.567700 -13.327240
						CHANNELS 3 Zrotation Yrotation Xrotation
						JOINT mixamorig:LeftForeArm
						{
							OFFSET 29.787109 -0.000004 -0.000004
							CHANNELS 3 Zrotation Yrotation Xrotation
							JOINT mixamorig:LeftHand
							{
								OFFSET 27.907402 0.000001 -0.000001
								CHANNELS 3 Zrotation Yrotation Xrotation
								JOINT mixamorig:LeftHandThumb1
								{
									OFFSET 4.385277 -3.294174 5.957924
									CHANNELS 3 Zrotation Yrotation Xrotation
									JOINT mixamorig:LeftHandThumb2
									{
										OFFSET 5.504555 -3.178055 3.178058
										CHANNELS 3 Zrotation Yrotation Xrotation
										JOINT mixamorig:LeftHandThumb3
										{
											OFFSET 5.079117 -2.932434 2.932431
											CHANNELS 3 Zrotation Yrotation Xrotation
											JOINT mixamorig:LeftHandThumb4
											{
												OFFSET 3.412636 -1.970291 1.970285
												CHANNELS 3 Zrotation Yrotation Xrotation
												End Site
												{
													OFFSET 0.000000 0.000000 0.000000
												}
											}
										}
									}
								}
								JOINT mixamorig:LeftHandIndex1
								{
									OFFSET 18.500992 -0.525558 5.209323
									CHANNELS 3 Zrotation Yrotation Xrotation
									JOINT mixamorig:LeftHandIndex2
									{
										OFFSET 3.245903 0.000000 0.000000
										CHANNELS 3 Zrotation Yrotation Xrotation
										JOINT mixamorig:LeftHandIndex3
										{
											OFFSET 3.816429 0.000000 0.000000
											CHANNELS 3 Zrotation Yrotation Xrotation
											JOINT mixamorig:LeftHandIndex4
											{
												OFFSET 3.831535 0.000000 0.000000
												CHANNELS 3 Zrotation Yrotation Xrotation
												End Site
												{
													OFFSET 0.000000 0.000000 0.000000
												}
											}
										}
									}
								}
								JOINT mixamorig:LeftHandMiddle1
								{
									OFFSET 18.527878 0.000000 0.000000
									CHANNELS 3 Zrotation Yrotation Xrotation
									JOINT mixamorig:LeftHandMiddle2
									{
										OFFSET 3.377342 0.000000 0.000000
										CHANNELS 3 Zrotation Yrotation Xrotation
										JOINT mixamorig:LeftHandMiddle3
										{
											OFFSET 4.504013 0.000000 0.000000
											CHANNELS 3 Zrotation Yrotation Xrotation
											JOINT mixamorig:LeftHandMiddle4
											{
												OFFSET 4.092804 0.000000 0.000000
												CHANNELS 3 Zrotation Yrotation Xrotation
												End Site
												{
													OFFSET 0.000000 0.000000 0.000000
												}
											}
										}
									}
								}
								JOINT mixamorig:LeftHandRing1
								{
									OFFSET 17.889069 0.120422 -4.218670
									CHANNELS 3 Zrotation Yrotation Xrotation
									JOINT mixamorig:LeftHandRing2
									{
										OFFSET 2.735115 0.000000 0.000000
										CHANNELS 3 Zrotation Yrotation Xrotation
										JOINT mixamorig:LeftHandRing3
										{
											OFFSET 3.330002 0.000000 0.000000
											CHANNELS 3 Zrotation Yrotation Xrotation
											JOINT mixamorig:LeftHandRing4
											{
												OFFSET 3.250610 0.000000 0.000000
												CHANNELS 3 Zrotation Yrotation Xrotation
												End Site
												{
													OFFSET 0.000000 0.000000 0.000000
												}
											}
										}
									}
								}
								JOINT mixamorig:LeftHandPinky1
								{
									OFFSET 16.228767 -0.608627 -7.594551
									CHANNELS 3 Zrotation Yrotation Xrotation
									JOINT mixamorig:LeftHandPinky2
									{
										OFFSET 2.688232 0.000000 0.000000
										CHANNELS 3 Zrotation Yrotation Xrotation
										JOINT mixamorig:LeftHandPinky3
										{
											OFFSET 2.487503 0.000000 0.000000
											CHANNELS 3 Zrotation Yrotation Xrotation
											JOINT mixamorig:LeftHandPinky4
											{
												OFFSET 1.853638 0.000000 0.000000
												CHANNELS 3 Zrotation Yrotation Xrotation
												End Site
												{
													OFFSET 0.000000 0.000000 0.000000
												}
											}
										}
									}
								}
							}
							JOINT mixamorig:Left_CapeC
							{
								OFFSET 15.866501 -8.490723 -6.837349
								CHANNELS 3 Zrotation Yrotation Xrotation
								JOINT mixamorig:Left_CapeC1
								{
									OFFSET 0.069977 -9.009132 -0.005505
									CHANNELS 3 Zrotation Yrotation Xrotation
									End Site
									{
										OFFSET 0.000000 0.000000 0.000000
									}
								}
							}
						}
						JOINT mixamorig:Left_CapeB
						{
							OFFSET 25.979805 -8.857712 -7.076626
							CHANNELS 3 Zrotation Yrotation Xrotation
							JOINT mixamorig:Left_CapeB1
							{
								OFFSET -0.021965 -8.484482 -0.004381
								CHANNELS 3 Zrotation Yrotation Xrotation
								End Site
								{
									OFFSET 0.000000 0.000000 0.000000
								}
							}
						}
						JOINT mixamorig:Left_CapeA
						{
							OFFSET 4.906307 -8.867569 -10.164864
							CHANNELS 3 Zrotation Yrotation Xrotation
							JOINT mixamorig:Left_CapeA1
							{
								OFFSET 0.065060 -8.702965 0.008343
								CHANNELS 3 Zrotation Yrotation Xrotation
								End Site
								{
									OFFSET 0.000000 0.000000 0.000000
								}
							}
						}
					}
				}
				JOINT mixamorig:RightShoulder
				{
					OFFSET -15.263000 11.005325 -0.581376
					CHANNELS 3 Zrotation Yrotation Xrotation
					JOINT mixamorig:RightArm
					{
						OFFSET -25.898201 -2.575595 -13.247862
						CHANNELS 3 Zrotation Yrotation Xrotation
						JOINT mixamorig:RightForeArm
						{
							OFFSET -29.683594 -0.000004 0.000004
							CHANNELS 3 Zrotation Yrotation Xrotation
							JOINT mixamorig:RightHand
							{
								OFFSET -27.552399 0.000001 0.000002
								CHANNELS 3 Zrotation Yrotation Xrotation
								JOINT mixamorig:RightHandThumb1
								{
									OFFSET -4.534866 -3.231049 6.198370
									CHANNELS 3 Zrotation Yrotation Xrotation
									JOINT mixamorig:RightHandThumb2
									{
										OFFSET -5.555481 -3.207458 3.207460
										CHANNELS 3 Zrotation Yrotation Xrotation
										JOINT mixamorig:RightHandThumb3
										{
											OFFSET -5.048988 -2.915039 2.915036
											CHANNELS 3 Zrotation Yrotation Xrotation
											JOINT mixamorig:RightHandThumb4
											{
												OFFSET -3.470932 -2.003937 2.003942
												CHANNELS 3 Zrotation Yrotation Xrotation
												End Site
												{
													OFFSET 0.000000 0.000000 0.000000
												}
											}
										}
									}
								}
								JOINT mixamorig:RightHandIndex1
								{
									OFFSET -18.647125 -0.520950 5.209499
									CHANNELS 3 Zrotation Yrotation Xrotation
									JOINT mixamorig:RightHandIndex2
									{
										OFFSET -3.257957 0.000000 0.000000
										CHANNELS 3 Zrotation Yrotation Xrotation
										JOINT mixamorig:RightHandIndex3
										{
											OFFSET -3.830109 0.000000 0.000000
											CHANNELS 3 Zrotation Yrotation Xrotation
											JOINT mixamorig:RightHandIndex4
											{
												OFFSET -4.076599 0.000000 0.000000
												CHANNELS 3 Zrotation Yrotation Xrotation
												End Site
												{
													OFFSET 0.000000 0.000000 0.000000
												}
											}
										}
									}
								}
								JOINT mixamorig:RightHandMiddle1
								{
									OFFSET -18.588463 0.000000 0.000002
									CHANNELS 3 Zrotation Yrotation Xrotation
									JOINT mixamorig:RightHandMiddle2
									{
										OFFSET -3.371826 0.000000 0.000000
										CHANNELS 3 Zrotation Yrotation Xrotation
										JOINT mixamorig:RightHandMiddle3
										{
											OFFSET -4.369202 0.000000 0.000000
											CHANNELS 3 Zrotation Yrotation Xrotation
											JOINT mixamorig:RightHandMiddle4
											{
												OFFSET -2.923546 0.000000 0.000000
												CHANNELS 3 Zrotation Yrotation Xrotation
												End Site
												{
													OFFSET 0.000000 0.000000 0.000000
												}
											}
										}
									}
								}
								JOINT mixamorig:RightHandRing1
								{
									OFFSET -17.879074 0.119339 -4.207394
									CHANNELS 3 Zrotation Yrotation Xrotation
									JOINT mixamorig:RightHandRing2
									{
										OFFSET -2.661499 0.000000 0.000000
										CHANNELS 3 Zrotation Yrotation Xrotation
										JOINT mixamorig:RightHandRing3
										{
											OFFSET -3.208199 0.000000 0.000000
											CHANNELS 3 Zrotation Yrotation Xrotation
											JOINT mixamorig:RightHandRing4
											{
												OFFSET -3.283501 0.000000 0.000000
												CHANNELS 3 Zrotation Yrotation Xrotation
												End Site
												{
													OFFSET 0.000000 0.000000 0.000000
												}
											}
										}
									}
								}
								JOINT mixamorig:RightHandPinky1
								{
									OFFSET -16.159256 -0.605835 -7.554152
									CHANNELS 3 Zrotation Yrotation Xrotation
									JOINT mixamorig:RightHandPinky2
									{
										OFFSET -2.525398 0.000000 0.000000
										CHANNELS 3 Zrotation Yrotation Xrotation
										JOINT mixamorig:RightHandPinky3
										{
											OFFSET -2.637398 0.000000 0.000000
											CHANNELS 3 Zrotation Yrotation Xrotation
											JOINT mixamorig:RightHandPinky4
											{
												OFFSET -1.991898 0.000000 0.000000
												CHANNELS 3 Zrotation Yrotation Xrotation
												End Site
												{
													OFFSET 0.000000 0.000000 0.000000
												}
											}
										}
									}
								}
							}
							JOINT mixamorig:Right_CapeC
							{
								OFFSET -14.979599 -8.655655 -7.313143
								CHANNELS 3 Zrotation Yrotation Xrotation
								JOINT mixamorig:Right_CapeC1
								{
									OFFSET -0.070480 -8.799957 0.005102
									CHANNELS 3 Zrotation Yrotation Xrotation
									End Site
									{
										OFFSET 0.000000 0.000000 0.000000
									}
								}
							}
						}
						JOINT mixamorig:Right_CapeB
						{
							OFFSET -25.495399 -8.714386 -7.336929
							CHANNELS 3 Zrotation Yrotation Xrotation
							JOINT mixamorig:Right_CapeB1
							{
								OFFSET -0.095078 -8.864182 0.012352
								CHANNELS 3 Zrotation Yrotation Xrotation
								End Site
								{
									OFFSET 0.000000 0.000000 0.000000
								}
							}
						}
						JOINT mixamorig:Right_CapeA
						{
							OFFSET -4.539398 -8.814468 -10.697832
							CHANNELS 3 Zrotation Yrotation Xrotation
							JOINT mixamorig:Right_CapeA1
							{
								OFFSET -0.031200 -8.864883 0.002108
								CHANNELS 3 Zrotation Yrotation Xrotation
								End Site
								{
									OFFSET 0.000000 0.000000 0.000000
								}
							}
						}
					}
				}
				JOINT mixamorig:Right_Peck
				{
					OFFSET -17.161200 -5.304504 25.131475
					CHANNELS 3 Zrotation Yrotation Xrotation
					End Site
					{
						OFFSET 0.000000 0.000000 0.000000
					}
				}
				JOINT mixamorig:Left_Peck
				{
					OFFSET 17.496799 -5.226059 25.131441
					CHANNELS 3 Zrotation Yrotation Xrotation
					End Site
					{
						OFFSET 0.000000 0.000000 0.000000
					}
				}
				JOINT mixamorig:Left_Collar
				{
					OFFSET 18.673000 8.701614 8.770367
					CHANNELS 3 Zrotation Yrotation Xrotation
					JOINT mixamorig:Left_Collar1
					{
						OFFSET 14.716171 10.417496 -1.192412
						CHANNELS 3 Zrotation Yrotation Xrotation
						End Site
						{
							OFFSET 0.000000 0.000000 0.000000
						}
					}
				}
				JOINT mixamorig:Right_Collar
				{
					OFFSET -18.575199 8.701584 8.780875
					CHANNELS 3 Zrotation Yrotation Xrotation
					JOINT mixamorig:Right_Collar1
					{
						OFFSET -14.819931 10.417496 -1.675122
						CHANNELS 3 Zrotation Yrotation Xrotation
						End Site
						{
							OFFSET 0.000000 0.000000 0.000000
						}
					}
				}
			}
		}
		JOINT mixamorig:Belly
		{
			OFFSET 0.000000 -7.186180 9.419335
			CHANNELS 3 Zrotation Yrotation Xrotation
			End Site
			{
				OFFSET 0.000000 0.000000 0.000000
			}
		}
	}
	JOINT mixamorig:LeftUpLeg
	{
		OFFSET 18.844400 -5.529315 -4.507404
		CHANNELS 3 Zrotation Yrotation Xrotation
		JOINT mixamorig:LeftLeg
		{
			OFFSET -0.093451 -32.082300 2.793235
			CHANNELS 3 Zrotation Yrotation Xrotation
			JOINT mixamorig:LeftFoot
			{
				OFFSET 0.093457 -31.984570 -5.636157
				CHANNELS 3 Zrotation Yrotation Xrotation
				JOINT mixamorig:LeftToeBase
				{
					OFFSET 1.077541 -26.551879 14.354875
					CHANNELS 3 Zrotation Yrotation Xrotation
					JOINT mixamorig:LeftToe_End
					{
						OFFSET 0.935007 0.313221 15.656780
						CHANNELS 3 Zrotation Yrotation Xrotation
						End Site
						{
							OFFSET 0.000000 0.000000 0.000000
						}
					}
				}
			}
		}
	}
	JOINT mixamorig:RightUpLeg
	{
		OFFSET -18.844400 -5.529311 -4.881217
		CHANNELS 3 Zrotation Yrotation Xrotation
		JOINT mixamorig:RightLeg
		{
			OFFSET 0.122213 -32.043598 3.234913
			CHANNELS 3 Zrotation Yrotation Xrotation
			JOINT mixamorig:RightFoot
			{
				OFFSET -0.122217 -31.792419 -5.571171
				CHANNELS 3 Zrotation Yrotation Xrotation
				JOINT mixamorig:RightToeBase
				{
					OFFSET -0.656431 -26.630018 14.273270
					CHANNELS 3 Zrotation Yrotation Xrotation
					JOINT mixamorig:RightToe_End
					{
						OFFSET -0.743732 0.071434 15.802410
						CHANNELS 3 Zrotation Yrotation Xrotation
						End Site
						{
							OFFSET 0.000000 0.000000 0.000000
						}
					}
				}
			}
		}
	}
}
MOTION
Frames: 4
Frame Time: 0.016667
2.539459 94.833450 14.338884 -7.869493 -4.963806 0.934050 1.226367 -4.964491 3.423439 0.391656 -0.346942 2.514437 0.361108 -0.322299 2.501409 8.880746 -4.454725 0.505680 3.566124 -12.575548 -7.011097 0.000000 0.000001 0.000001 -0.000001 0.000001 -0.000000 0.000000 0.000000 0.000000 -4.464604 -31.575113 3.269818 -2.477071 -59.437685 -2.381205 26.930184 -75.656095 -37.089001 -13.803862 -14.097104 15.067026 8.641231 -8.314139 -1.429855 -30.087093 48.044455 -0.997524 24.396965 50.019681 7.513541 -0.000001 0.000003 -0.000000 -79.124475 9.297589 -1.727839 -82.679310 5.803718 -5.106779 -96.164809 5.817486 -6.478295 0.000000 0.000000 -0.000007 -74.303295 5.298146 -6.513588 -107.597349 5.579034 -7.617226 -72.166440 5.571758 -4.061994 -0.000001 -0.000000 -0.000001 -79.766478 2.533401 -7.114867 -94.180891 5.835612 -6.276907 -59.796925 5.061225 -2.911407 0.000000 0.000001 0.000003 -84.962828 5.262112 -15.766392 -54.729968 4.782583 -2.476398 -81.140941 5.781716 -4.951519 -0.000002 0.000001 -0.000000 0.000000 -0.000001 -0.000003 0.000000 0.000000 -0.000001 -0.000002 0.000002 -0.000000 -0.000001 -0.000001 0.000000 0.000001 0.000000 0.000000 0.000000 0.000000 0.000000 -13.129922 14.998688 -24.227873 -14.738475 15.606111 -24.537380 6.510945 24.033015 0.854424 -32.428750 -4.366664 -40.812966 -8.272821 10.163278 -2.375767 0.588773 -37.468784 7.069532 -26.104704 -34.405128 3.281488 0.000002 -0.000000 0.000002 51.184103 -5.381504 2.633187 82.693189 -4.619537 -4.065505 96.153067 -4.630479 -5.155809 0.000002 0.000002 0.000001 73.572328 -4.124080 -5.509288 107.565768 -4.440951 -6.061321 43.751134 -3.224284 -1.294817 -0.000001 -0.000001 0.000001 91.910073 -0.824053 -7.092597 86.246711 -4.647223 -4.352656 41.365292 -3.081555 -1.163596 -0.000002 0.000001 0.000001 97.586006 -1.654337 -15.212408 51.517815 -3.648734 -1.761105 53.331230 -3.738463 -1.877930 -0.000001 -0.000001 0.000000 -0.000000 0.000003 -0.000001 -0.000002 0.000000 0.000002 0.000000 0.000001 0.000000 -0.000001 0.000003 -0.000001 0.000001 0.000001 0.000001 0.000001 0.000001 0.000002 0.000000 0.000000 0.000001 0.000000 0.000000 0.000001 0.000000 -0.000001 0.000000 0.000000 0.000000 -0.000001 -0.000000 -0.000001 0.000001 0.000000 0.000000 0.000000 0.000000 0.000000 0.000000 14.933958 14.497367 -17.262542 4.602180 9.045983 28.737618 3.239635 0.714188 -1.823261 -2.433738 -0.102306 -3.366684 0.000000 0.000000 -0.000001 -8.619959 -14.732731 -39.522980 -11.924692 -7.397074 62.022225 6.137141 -19.890362 18.090896 0.000017 0.000011 3.854483 0.000000 0.000000 0.000002 
1.101988 95.087418 14.692947 -7.010584 -3.911361 1.306610 -0.283173 -5.016385 2.615603 0.213088 -0.360068 1.925067 0.189165 -0.339917 1.910093 10.368459 -4.835977 0.697977 2.545230 -12.419284 -4.743219 -0.000001 -0.000001 0.000001 0.000000 0.000001 0.000000 0.000001 -0.000000 0.000001 -5.918651 -32.015627 3.521316 -0.965443 -58.311505 -0.714569 26.884336 -75.431207 -37.124548 -13.805946 -13.932260 11.582024 8.641220 -8.314143 -1.429858 -30.087105 48.044478 -0.997547 24.396972 50.019664 7.513541 -0.000002 0.000000 0.000001 -79.124495 9.297590 -1.727828 -82.679310 5.803694 -5.106776 -96.164781 5.817476 -6.478319 0.000001 -0.000001 0.000001 -74.303301 5.298148 -6.513588 -107.597343 5.579044 -7.617217 -72.166440 5.571741 -4.061987 0.000001 0.000000 -0.000004 -79.766471 2.533395 -7.114858 -94.180871 5.835604 -6.276911 -59.796939 5.061232 -2.911408 -0.000001 0.000001 0.000002 -84.962861 5.262104 -15.766403 -54.729956 4.782598 -2.476396 -81.140941 5.781716 -4.951521 0.000002 -0.000001 -0.000000 0.000000 -0.000001 -0.000002 0.000000 0.000000 0.000000 0.000000 0.000000 0.000000 0.000000 0.000000 0.000000 0.000000 0.000000 0.000000 0.000001 0.000001 0.000000 -12.521990 11.918694 -23.726381 -15.706703 27.384550 -11.435625 6.345298 4.790110 0.090460 -24.962077 3.581846 -44.175594 -8.272806 10.163290 -2.375766 0.588764 -37.468782 7.069527 -26.104733 -34.405129 3.281487 0.000002 0.000002 0.000003 51.184107 -5.381497 2.633200 82.693175 -4.619521 -4.065492 96.153060 -4.630461 -5.155821 -0.000002 0.000001 -0.000000 73.572349 -4.124093 -5.509280 107.565747 -4.440927 -6.061297 43.751127 -3.224287 -1.294818 -0.000003 0.000001 -0.000002 91.910079 -0.824079 -7.092593 86.246732 -4.647235 -4.352641 41.365279 -3.081543 -1.163594 -0.000001 0.000000 0.000001 97.586006 -1.654356 -15.212402 51.517826 -3.648714 -1.761118 53.331219 -3.738500 -1.877925 0.000000 0.000001 0.000000 -0.000005 0.000004 0.000002 -0.000001 0.000000 0.000000 0.000001 0.000004 -0.000001 -0.000001 0.000002 0.000001 -0.000000 0.000003 -0.000001 0.000000 0.000000 0.000000 -0.000000 -0.000001 0.000001 0.000001 -0.000000 0.000001 0.000001 0.000000 0.000000 0.000000 0.000000 0.000000 0.000001 -0.000001 0.000001 0.000000 -0.000001 -0.000001 0.000000 0.000000 0.000000 12.289211 15.467148 -19.088704 4.180748 7.484786 32.516046 0.357180 0.252087 -3.030498 -2.590689 -0.107330 -3.388111 0.000000 0.000001 0.000000 -9.018235 -11.354600 -32.462879 -9.364925 -8.517507 48.683575 8.226156 -17.797527 21.303819 0.000011 0.000008 2.290426 -0.000002 0.000001 0.000004 
-0.326743 95.003433 15.042103 -5.972533 -2.810880 1.653949 -1.802619 -5.097426 1.900566 0.095242 -0.377440 1.419831 0.077159 -0.359602 1.403658 11.427473 -5.090345 0.668868 1.639677 -12.175617 -2.713968 -0.000000 -0.000003 0.000002 0.000000 -0.000001 0.000000 -0.000001 -0.000001 0.000001 -7.437702 -32.471658 3.796733 -0.255507 -57.070899 1.045178 28.080857 -75.851094 -38.403584 -14.038607 -13.757296 8.372342 8.641223 -8.314148 -1.429849 -30.087098 48.044474 -0.997532 24.396967 50.019664 7.513538 -0.000002 0.000000 0.000003 -79.124495 9.297603 -1.727841 -82.679276 5.803711 -5.106778 -96.164781 5.817482 -6.478316 0.000000 0.000000 -0.000001 -74.303294 5.298157 -6.513587 -107.597377 5.579053 -7.617226 -72.166454 5.571748 -4.061980 0.000000 0.000000 -0.000001 -79.766465 2.533405 -7.114859 -94.180891 5.835609 -6.276907 -59.796939 5.061221 -2.911407 0.000002 0.000000 0.000000 -84.962841 5.262115 -15.766388 -54.729977 4.782597 -2.476397 -81.140940 5.781715 -4.951507 -0.000001 0.000000 0.000002 0.000000 0.000000 0.000001 0.000000 -0.000001 0.000000 0.000000 0.000001 0.000000 -0.000001 0.000000 0.000000 0.000001 -0.000001 0.000001 0.000001 0.000000 0.000000 -12.357141 8.745589 -23.257020 -12.404644 35.626886 2.527223 6.365922 -5.839403 -0.306391 -18.415171 10.967422 -39.083896 -8.272796 10.163287 -2.375755 0.588764 -37.468788 7.069519 -26.104739 -34.405123 3.281501 0.000005 -0.000002 0.000003 51.184121 -5.381495 2.633190 82.693134 -4.619516 -4.065514 96.153074 -4.630468 -5.155817 0.000000 0.000000 0.000001 73.572376 -4.124069 -5.509291 107.565755 -4.440952 -6.061297 43.751131 -3.224270 -1.294821 0.000000 -0.000004 0.000000 91.910107 -0.824070 -7.092599 86.246766 -4.647227 -4.352651 41.365275 -3.081540 -1.163594 -0.000001 0.000003 -0.000000 97.586019 -1.654347 -15.212408 51.517805 -3.648730 -1.761104 53.331243 -3.738480 -1.877920 -0.000001 0.000002 0.000001 -0.000000 -0.000001 0.000001 0.000004 0.000000 0.000000 0.000004 0.000000 -0.000002 -0.000000 -0.000003 0.000002 0.000002 0.000000 -0.000002 -0.000000 -0.000003 0.000001 0.000001 0.000000 -0.000001 0.000001 0.000000 -0.000001 0.000001 -0.000000 0.000001 0.000000 0.000000 0.000000 0.000001 0.000002 0.000002 0.000000 0.000000 0.000000 0.000000 0.000000 -0.000001 9.248276 15.985426 -20.281068 3.501238 6.009259 35.325309 -2.521302 0.319342 -4.521988 -2.646394 -0.111030 -3.472725 0.000000 0.000001 0.000000 -9.299504 -8.798097 -25.277217 -6.190962 -8.203534 34.930312 9.002159 -15.697135 23.262444 9.745313 0.162243 -6.310992 0.000000 0.000001 0.000001 
-1.676629 94.682487 15.361382 -5.058717 -1.656496 1.913801 -2.971342 -5.214932 1.334690 0.060434 -0.395692 1.065242 0.046039 -0.380380 1.049105 11.948034 -5.157250 0.467722 0.923936 -11.780569 -1.133156 0.000000 -0.000001 -0.000001 0.000000 -0.000002 0.000000 0.000000 0.000000 -0.000002 -8.728830 -32.819164 4.080314 -0.459507 -55.691848 2.797341 30.411236 -76.779465 -40.861985 -14.496619 -13.585863 6.019433 8.641221 -8.314143 -1.429853 -30.087093 48.044455 -0.997518 24.396973 50.019667 7.513543 -0.000002 0.000004 0.000001 -79.124482 9.297598 -1.727835 -82.679310 5.803716 -5.106778 -96.164774 5.817483 -6.478301 0.000000 0.000000 -0.000001 -74.303301 5.298153 -6.513589 -107.597322 5.579047 -7.617217 -72.166433 5.571739 -4.061986 -0.000001 -0.000000 -0.000001 -79.766477 2.533400 -7.114847 -94.180871 5.835603 -6.276906 -59.796920 5.061224 -2.911415 -0.000001 -0.000002 0.000000 -84.962848 5.262116 -15.766382 -54.729957 4.782580 -2.476403 -81.140940 5.781723 -4.951522 -0.000004 -0.000000 -0.000001 0.000000 0.000000 0.000000 0.000000 0.000000 0.000000 -0.000001 0.000001 -0.000000 -0.000001 0.000001 -0.000000 0.000000 0.000001 0.000000 0.000000 0.000000 0.000000 -12.689963 5.815819 -23.052871 -8.089812 38.357728 15.375319 6.366053 -5.833024 -0.306339 -11.789281 15.849972 -26.836699 -8.272816 10.163294 -2.375753 0.588754 -37.468795 7.069542 -26.104704 -34.405116 3.281482 0.000002 -0.000002 0.000003 51.184103 -5.381505 2.633198 82.693169 -4.619523 -4.065494 96.153067 -4.630471 -5.155824 0.000000 -0.000002 0.000000 73.572335 -4.124077 -5.509283 107.565741 -4.440942 -6.061307 43.751135 -3.224285 -1.294832 -0.000000 0.000001 -0.000001 91.910086 -0.824071 -7.092591 86.246732 -4.647233 -4.352650 41.365265 -3.081553 -1.163598 0.000001 0.000004 0.000000 97.586005 -1.654347 -15.212429 51.517798 -3.648743 -1.761090 53.331224 -3.738455 -1.877933 0.000002 -0.000001 -0.000000 -0.000001 -0.000002 0.000002 -0.000001 -0.000001 0.000001 0.000002 0.000001 0.000000 0.000002 -0.000001 0.000001 0.000003 0.000002 -0.000001 0.000002 -0.000002 0.000001 0.000000 0.000000 -0.000001 -0.000001 -0.000001 -0.000001 0.000000 0.000000 0.000000 -0.000001 0.000000 0.000000 0.000000 0.000000 -0.000001 0.000001 0.000000 0.000000 0.000001 0.000000 0.000000 6.157009 15.909507 -20.713586 3.217938 5.321186 36.774791 -4.308325 1.202558 -6.369504 0.713429 0.032296 -5.423601 0.000000 0.000000 0.000000 -9.418440 -6.681986 -17.313560 -3.397209 -6.796266 20.476653 8.240385 -13.756768 24.043932 7.851709 0.742234 -14.621405 -0.000001 -0.000002 0.000000 
